<svg version="1.1" width="111.66297734511583" height="183.04969609511585" xmlns="http://www.w3.org/2000/svg" xmlns:xlink="http://www.w3.org/1999/xlink" viewBox="0.7524957024420829 0.8892144524420829 111.66297734511583 183.04969609511585">
  <!-- Exported by Scratch - http://scratch.mit.edu/ -->
  <g id="ID0.25528564071282744">
    <path id="ID0.5150838536210358" fill="#D1D3D4" stroke="#C2B59B" d="M 61.7443 100.5097 C 55.5451 109.316 51.4464 124.4967 51.4464 141.7573 C 51.4464 159.018 55.5451 174.2024 61.7443 183.0069 C 67.9455 174.2005 72.0441 159.018 72.0441 141.7573 C 72.0441 124.4967 67.9473 109.316 61.7443 100.5097 Z " stroke-width="1.8621960951158343"/>
    <path id="ID0.586994057521224" fill="#D1D3D4" stroke="#C2B59B" d="M 20.8971 101.6494 C 20.8971 101.6494 1.6848 115.7648 1.6848 135.7592 C 1.6848 155.7573 11.29 178.1074 11.29 178.1074 L 35.7946 141.64 L 20.8971 101.6494 Z " stroke-width="1.8621960951158343"/>
    <path id="ID0.3152541941963136" fill="#CD372E" d="M 106.2285 82.2471 C 107.1875 86.2322 107.6959 90.3924 107.6959 94.6792 C 107.6959 123.2899 85.0479 146.4817 57.1131 146.4817 C 29.1801 146.4817 6.8747 122.221 6.8747 93.6084 C 6.8747 85.2788 8.3421 77.7965 11.4073 70.8226 C 14.4725 63.8468 18.9753 57.3235 29.4203 44.5377 C 39.8673 31.7537 45.4799 27.696 50.4687 17.8748 C 55.4576 8.0517 55.7704 1.8189 57.9529 1.8189 C 60.1354 1.8189 60.7611 10.3924 64.9697 18.3459 C 69.1801 26.2993 78.843 34.8729 89.9156 49.3738 C 100.9864 63.871 104.9268 76.7816 106.1726 82.0814 L 106.2285 82.2471 Z " stroke-width="1.8621960951158343"/>
    <path id="ID0.9130098931491375" fill="#27AAE1" d="M 38.1857 62.6233 C 43.8784 62.6233 49.0367 64.9362 52.7723 68.6717 C 56.5078 72.4073 58.8207 77.5656 58.8207 83.2583 C 58.8207 88.9511 56.5078 94.1093 52.7723 97.8449 C 49.0367 101.5805 43.8784 103.8933 38.1857 103.8933 C 32.493 103.8933 27.3347 101.5805 23.5991 97.8449 C 19.8636 94.1093 17.5507 88.9511 17.5507 83.2583 C 17.5507 77.5656 19.8636 72.4073 23.5991 68.6717 C 27.3347 64.9362 32.493 62.6233 38.1857 62.6233 Z " stroke-width="1.8621960951158343"/>
    <path id="ID0.6974497074261308" fill="#E6E7E8" d="M 66.9753 145.1223 C 66.9753 145.1223 58.1186 136.5618 56.2602 125.5581 C 54.0237 112.2974 57.9492 98.5209 60.3812 91.5712 L 60.4203 91.4874 C 61.6307 88.3421 62.3011 84.8524 62.3011 81.182 C 62.3011 67.2192 52.5749 55.8971 40.573 55.8971 C 29.5507 55.8971 18.344 66.3496 16.7909 80.1615 C 15.2732 93.6494 15.7388 103.1987 22.3775 121.1335 C 26.7835 133.0367 31.1764 138.1652 33.8002 140.3235 L 33.8635 140.4203 C 40.8002 144.2788 48.7034 146.4817 57.1149 146.4817 C 60.5432 146.4817 63.8933 146.1316 67.1298 145.465 L 66.9753 145.1223 Z M 37.4129 102.7648 C 28.2136 102.7648 20.7555 95.1596 20.7555 85.7797 C 20.7555 76.4017 28.2136 68.7965 37.4129 68.7965 C 46.6121 68.7965 54.0702 76.4017 54.0702 85.7797 C 54.0684 95.1596 46.6121 102.7648 37.4129 102.7648 Z " stroke-width="1.8621960951158343"/>
    <path id="ID0.5012194369919598" fill="#DA1C5C" d="M 67.6103 22.6308 C 64.1149 23.642 60.2471 24.2025 56.1764 24.2025 C 53.0944 24.2025 50.128 23.8803 47.3496 23.2863 L 47.3049 23.29 C 48.4092 21.642 49.452 19.8785 50.4706 17.8748 C 50.7797 17.2677 51.0702 16.6736 51.344 16.0982 L 51.4501 16.1113 C 52.979 16.3347 54.56 16.452 56.1782 16.452 C 58.7704 16.452 61.2676 16.1541 63.6158 15.5991 L 63.6568 15.5991 C 64.0535 16.5135 64.4892 17.4353 64.9715 18.3477 C 65.709 19.7444 66.6177 21.1634 67.6717 22.6234 L 67.6103 22.6308 Z " stroke-width="1.8621960951158343"/>
    <path id="ID0.29763966565951705" fill="#DA1C5C" d="M 43.4762 28.4185 C 47.3421 29.8971 51.8375 30.7444 56.6326 30.7444 C 62.1987 30.7444 67.357 29.6029 71.6009 27.6587 L 71.6233 27.6289 C 74.2415 30.7444 77.3198 34.1559 80.7015 38.0777 L 80.6624 38.087 C 74.3309 41.0703 65.9324 42.884 56.7201 42.884 C 48.249 42.884 40.4688 41.3496 34.3496 38.7854 " stroke-width="1.8621960951158343"/>
    <path id="ID0.420181293040514" fill="#A7A9AC" d="M 81.424 140.1149 C 74.2099 144.1726 65.9287 146.4817 57.1149 146.4817 C 48.776 146.4817 40.9362 144.3179 34.0423 140.5227 L 34.1094 140.7573 C 34.7853 145.0646 45.1075 149.8877 57.7443 149.8877 C 70.8188 149.8877 81.4222 144.8244 81.4222 140.3048 C 81.4222 140.2303 81.4184 140.1596 81.4129 140.0832 L 81.424 140.1149 Z " stroke-width="1.8621960951158343"/>
    <path id="ID0.1553567578084767" fill="none" stroke="#C2B59B" d="M 81.4129 140.0832 C 81.4184 140.1596 81.4222 140.2303 81.4222 140.3048 C 81.4222 144.8244 70.8207 149.8877 57.7443 149.8877 C 45.1075 149.8877 34.7853 145.0646 34.1094 140.7573 " stroke-width="1.8621960951158343"/>
    <path id="ID0.32193026412278414" fill="none" stroke="#C2B59B" d="M 80.8188 38.0181 C 74.4706 41.0386 66.0088 42.8859 56.7201 42.8859 C 48.2267 42.8859 40.4259 41.3421 34.3012 38.7667 " stroke-width="1.8621960951158343"/>
    <path id="ID0.9922009585425258" fill="none" stroke="#C2B59B" d="M 67.7052 22.601 C 64.1857 23.6308 60.2844 24.2006 56.1764 24.2006 C 53.0758 24.2006 50.0926 23.8747 47.3011 23.2714 " stroke-width="1.8621960951158343"/>
    <path id="ID0.14914615079760551" fill="none" stroke="#C2B59B" d="M 63.735 15.5675 C 61.3533 16.1429 58.8114 16.4502 56.1764 16.4502 C 54.5581 16.4502 52.9771 16.3347 51.4483 16.1094 " stroke-width="1.8621960951158343"/>
    <path id="ID0.9143646494485438" fill="none" stroke="#C2B59B" d="M 71.8412 27.5489 C 67.5544 29.56 62.3049 30.7463 56.6326 30.7463 C 51.8207 30.7463 47.3142 29.8915 43.4427 28.4073 " stroke-width="1.8621960951158343"/>
    <path id="ID0.2940642866306007" stroke="#C2B59B" d="M 34.3049 38.7574 C 37.938 34.5898 40.8896 31.4576 43.4445 28.3924 " stroke-width="1.8621960951158343"/>
    <path id="ID0.5523908301256597" fill="#726658" d="M 44.6084 70.506 C 35.7071 70.8524 28.5935 78.3179 28.5935 87.4799 C 28.5935 94.1782 32.3961 99.9697 37.9231 102.735 L 37.979 102.7536 C 37.7909 102.7611 37.6028 102.7648 37.4129 102.7648 C 28.2136 102.7648 20.7555 95.1596 20.7555 85.7797 C 20.7555 76.4017 28.2136 68.7965 37.4129 68.7965 C 40.0144 68.7965 42.4799 69.4036 44.6736 70.4892 L 44.6084 70.506 Z " stroke-width="1.8621960951158343"/>
    <path id="ID0.559367491863668" fill="none" stroke="#C2B59B" d="M 34.2807 140.7052 C 31.7388 138.7965 27.0647 133.802 22.3775 121.1335 C 15.7407 103.1987 15.2751 93.6494 16.7909 80.1615 C 18.3421 66.3496 29.5488 55.8971 40.573 55.8971 C 52.5749 55.8971 62.3011 67.2192 62.3011 81.182 C 62.3011 84.8524 61.6326 88.3421 60.4203 91.4874 L 60.3812 91.5712 C 57.9473 98.5209 54.0218 112.2974 56.2602 125.5581 C 58.1205 136.5618 66.9753 145.1223 66.9753 145.1223 " stroke-width="1.8621960951158343"/>
    <path id="ID0.9389773323200643" fill="none" stroke="#C2B59B" d="M 37.411 68.7946 C 42.0069 68.7946 46.1708 70.6978 49.1857 73.7723 C 52.2024 76.8468 54.0684 81.0944 54.0684 85.7797 C 54.0684 90.465 52.2024 94.7127 49.1857 97.7872 C 46.1708 100.8617 42.0069 102.7648 37.411 102.7648 C 32.8151 102.7648 28.6513 100.8617 25.6364 97.7872 C 22.6196 94.7127 20.7537 90.465 20.7537 85.7797 C 20.7537 81.0944 22.6196 76.8468 25.6364 73.7723 C 28.6513 70.6978 32.8151 68.7946 37.411 68.7946 Z " stroke-width="1.8621960951158343"/>
    <path id="ID0.6667452291585505" fill="none" stroke="#C2B59B" d="M 106.2285 82.2471 C 107.1875 86.2322 107.6959 90.3924 107.6959 94.6792 C 107.6959 123.2899 85.0479 146.4817 57.1131 146.4817 C 29.1801 146.4817 6.8747 122.221 6.8747 93.6084 C 6.8747 85.2788 8.3421 77.7965 11.4073 70.8226 C 14.4725 63.8468 18.9753 57.3235 29.4203 44.5377 C 39.8673 31.7537 45.4799 27.696 50.4687 17.8748 C 55.4576 8.0517 55.7704 1.8189 57.9529 1.8189 C 60.1354 1.8189 60.7611 10.3924 64.9697 18.3459 C 69.1801 26.2993 78.843 34.8729 89.9156 49.3738 C 100.9864 63.871 104.9268 76.7816 106.1726 82.0814 L 106.2285 82.2471 Z " stroke-width="1.8621960951158343"/>
    <path id="ID0.8488279492594302" fill="none" stroke="#C2B59B" d="M 37.9715 102.7611 C 32.4185 100.005 28.5917 94.195 28.5917 87.4799 C 28.5917 78.3179 35.7053 70.8505 44.6066 70.506 " stroke-width="1.8621960951158343"/>
    <path id="ID0.8557561589404941" fill="#D1D3D4" stroke="#C2B59B" d="M 92.275 105.8654 C 92.275 105.8654 111.4855 119.9827 111.4855 139.9771 C 111.4855 159.9733 101.8803 182.3234 101.8803 182.3234 L 77.3738 145.8579 L 92.275 105.8654 Z " stroke-width="1.8621960951158343"/>
  </g>
</svg>