<svg version="1.1" width="114.36610234511583" height="174.99110234511585" xmlns="http://www.w3.org/2000/svg" xmlns:xlink="http://www.w3.org/1999/xlink" viewBox="0.09624570244208286 0.18608945244208286 114.36610234511583 174.99110234511585">
  <!-- Exported by Scratch - http://scratch.mit.edu/ -->
  <g id="ID0.5713793248869479">
    <path id="ID0.3668101476505399" fill="#F1F2F2" stroke="#C2B59B" d="M 104.1599 137.5489 C 106.7428 137.5489 109.0817 138.0201 110.7763 138.7817 C 112.4709 139.5433 113.5193 140.5955 113.5193 141.7575 C 113.5193 142.9195 112.4709 143.9716 110.7763 144.7333 C 109.0817 145.4949 106.7428 145.966 104.1599 145.966 C 101.577 145.966 99.2381 145.4949 97.5435 144.7333 C 95.8489 143.9716 94.8005 142.9195 94.8005 141.7575 C 94.8005 140.5955 95.8489 139.5433 97.5435 138.7817 C 99.2381 138.0201 101.577 137.5489 104.1599 137.5489 Z " stroke-width="1.8621960951158343"/>
    <path id="ID0.01005561277270317" fill="#231F20" d="M 94.8098 142.048 L 94.942 144.6346 C 95.7204 146.6066 99.5528 148.1039 104.1599 148.1039 C 108.5994 148.1039 112.3219 146.7147 113.5305 144.8487 L 113.5305 141.9642 L 113.5118 141.8804 C 113.361 144.1504 109.2307 145.9642 104.1599 145.9642 C 99.1692 145.9642 95.0947 144.2081 94.8154 141.9958 L 94.8098 142.048 Z " stroke-width="1.8621960951158343"/>
    <path id="ID0.36015978967770934" fill="#3B2314" stroke="#C2B59B" d="M 102.942 143.5806 C 100.5249 143.5806 98.4802 141.7109 98.3014 139.264 C 98.2269 138.2994 97.8359 135.3217 96.9495 133.2417 C 95.3182 129.4111 92.1916 126.9903 92.1618 126.9679 C 90.1282 125.4111 89.7186 122.4949 91.2586 120.454 C 92.8024 118.4055 95.6944 117.9772 97.7484 119.508 C 98.2698 119.8972 102.9178 123.4763 105.523 129.5899 C 107.1767 133.4782 107.5565 138.0685 107.5919 138.5806 C 107.7819 141.1448 105.8545 143.3776 103.2884 143.5713 C 103.1729 143.5769 103.0575 143.5806 102.942 143.5806 L 102.942 143.5806 Z " stroke-width="1.8621960951158343"/>
    <path id="ID0.786283471621573" fill="none" stroke="#C2B59B" d="M 94.8098 142.048 L 94.942 144.6346 C 95.7204 146.6066 99.5528 148.1039 104.1599 148.1039 C 108.5994 148.1039 112.3219 146.7147 113.5305 144.8487 L 113.5305 141.9642 " stroke-width="1.8621960951158343"/>
    <path id="ID0.045244522858411074" fill="#CD372E" d="M 109.1562 81.5452 C 110.1152 85.5303 110.6236 89.6905 110.6236 93.9773 C 110.6236 122.5862 87.9755 145.7798 60.0426 145.7798 C 32.1097 145.7798 9.8043 121.5173 9.8043 92.9084 C 9.8043 84.5788 11.2717 77.0946 14.3369 70.1207 C 17.402 63.1449 21.9048 56.6216 32.3518 43.8358 C 42.7968 31.0518 48.4095 26.9941 53.4002 17.1728 C 58.389 7.3498 58.7 1.117 60.8825 1.117 C 63.0668 1.117 63.6925 9.6905 67.9011 17.644 C 72.1115 25.5974 81.7744 34.171 92.8471 48.6719 C 103.9178 63.1691 107.8582 76.0797 109.104 81.3795 L 109.1562 81.5452 Z " stroke-width="1.8621960951158343"/>
    <path id="ID0.8022012240253389" fill="#27AAE1" d="M 41.1134 61.9214 C 46.8061 61.9214 51.9644 64.2343 55.7 67.9698 C 59.4355 71.7054 61.7484 76.8637 61.7484 82.5564 C 61.7484 88.2491 59.4355 93.4074 55.7 97.143 C 51.9644 100.8786 46.8061 103.1914 41.1134 103.1914 C 35.4207 103.1914 30.2624 100.8786 26.5268 97.143 C 22.7912 93.4074 20.4784 88.2491 20.4784 82.5564 C 20.4784 76.8637 22.7912 71.7054 26.5268 67.9698 C 30.2624 64.2343 35.4207 61.9214 41.1134 61.9214 Z " stroke-width="1.8621960951158343"/>
    <path id="ID0.747256888076663" fill="#E6E7E8" d="M 69.9029 144.4204 C 69.9029 144.4204 61.0463 135.8618 59.1879 124.8562 C 56.9514 111.5955 60.875 97.8208 63.3089 90.8711 L 63.348 90.7873 C 64.5584 87.6421 65.2288 84.1504 65.2288 80.4801 C 65.2288 66.5173 55.5026 55.1952 43.5007 55.1952 C 32.4765 55.1952 21.2698 65.6477 19.7186 79.4596 C 18.2028 92.9475 18.6683 102.4987 25.3052 120.4316 C 29.7093 132.3329 34.1041 137.4633 36.7279 139.6215 L 36.7912 139.7165 C 43.7279 143.575 51.6311 145.7798 60.0426 145.7798 C 63.4709 145.7798 66.821 145.4279 70.0575 144.7612 L 69.9029 144.4204 Z M 40.3406 102.0629 C 31.1395 102.0629 23.6832 94.4577 23.6832 85.0778 C 23.6832 75.6998 31.1395 68.0946 40.3406 68.0946 C 49.538 68.0946 56.9961 75.6998 56.9961 85.0778 C 56.9961 94.4577 49.538 102.0629 40.3406 102.0629 Z " stroke-width="1.8621960951158343"/>
    <path id="ID0.9920418476685882" fill="#D91C5C" d="M 70.5379 21.9289 C 67.0426 22.9401 63.1748 23.5006 59.1041 23.5006 C 56.0221 23.5006 53.0556 23.1784 50.2773 22.5844 L 50.2326 22.5881 C 51.3368 20.9401 52.3797 19.1766 53.3983 17.1728 C 53.7074 16.5658 53.9961 15.9717 54.2717 15.3963 L 54.3778 15.4093 C 55.9048 15.6328 57.4877 15.7501 59.1059 15.7501 C 61.6962 15.7501 64.1934 15.4522 66.5417 14.8972 L 66.5826 14.8972 C 66.9793 15.8116 67.415 16.7334 67.8974 17.6458 C 68.6348 19.0425 69.5435 20.4615 70.5975 21.9214 L 70.5379 21.9289 Z " stroke-width="1.8621960951158343"/>
    <path id="ID0.6612361040897667" fill="#D91C5C" d="M 46.4039 27.7166 C 50.2698 29.1952 54.7651 30.0425 59.5622 30.0425 C 65.1264 30.0425 70.2865 28.901 74.5286 26.9568 L 74.551 26.927 C 77.1692 30.0425 80.2474 33.454 83.6292 37.3758 L 83.5901 37.3851 C 77.2586 40.3684 68.8601 42.1821 59.6478 42.1821 C 51.1767 42.1821 43.3964 40.6477 37.2791 38.0834 " stroke-width="1.8621960951158343"/>
    <path id="ID0.5592075642198324" fill="#A6A8AB" d="M 84.3517 139.4111 C 77.1376 143.4707 68.8564 145.7798 60.0426 145.7798 C 51.7018 145.7798 43.8638 143.616 36.9681 139.8189 L 37.037 140.0554 C 37.7112 144.3608 48.0352 149.1839 60.6702 149.1839 C 73.7446 149.1839 84.348 144.1206 84.348 139.6029 C 84.348 139.5266 84.3443 139.4577 84.3387 139.3813 L 84.3517 139.4111 Z " stroke-width="1.8621960951158343"/>
    <path id="ID0.3751609595492482" fill="none" stroke="#C2B59B" d="M 84.3405 139.3832 C 84.3461 139.4595 84.3499 139.5284 84.3499 139.6048 C 84.3499 144.1225 73.7484 149.1858 60.672 149.1858 C 48.037 149.1858 37.713 144.3627 37.0389 140.0573 " stroke-width="1.8621960951158343"/>
    <path id="ID0.3269699648953974" fill="none" stroke="#C2B59B" d="M 83.7465 37.3162 C 77.3983 40.3367 68.9365 42.184 59.6478 42.184 C 51.1543 42.184 43.3555 40.6402 37.2288 38.0648 " stroke-width="1.8621960951158343"/>
    <path id="ID0.2634875951334834" fill="none" stroke="#C2B59B" d="M 70.6329 21.8991 C 67.1134 22.9289 63.2121 23.4987 59.1059 23.4987 C 56.0054 23.4987 53.0203 23.1728 50.2307 22.5695 " stroke-width="1.8621960951158343"/>
    <path id="ID0.926823440939188" fill="none" stroke="#C2B59B" d="M 66.6627 14.8656 C 64.281 15.441 61.7391 15.7483 59.1041 15.7483 C 57.4858 15.7483 55.9029 15.6328 54.3759 15.4075 " stroke-width="1.8621960951158343"/>
    <path id="ID0.7094503338448703" fill="none" stroke="#C2B59B" d="M 74.7689 26.847 C 70.4821 28.8581 65.2325 30.0443 59.5622 30.0443 C 54.7502 30.0443 50.2437 29.1896 46.3704 27.7054 " stroke-width="1.8621960951158343"/>
    <path id="ID0.3973501920700073" fill="#231F20" stroke="#C2B59B" d="M 37.2307 38.0555 C 40.8638 33.8879 43.8154 30.7557 46.3704 27.6905 " stroke-width="1.8621960951158343"/>
    <path id="ID0.09053109167143703" fill="#716558" d="M 47.5342 69.8041 C 38.6348 70.1505 31.5193 77.616 31.5193 86.7799 C 31.5193 93.4763 35.322 99.2696 40.849 102.0331 L 40.9048 102.0517 C 40.7167 102.0592 40.5287 102.0629 40.3387 102.0629 C 31.1376 102.0629 23.6814 94.4577 23.6814 85.0778 C 23.6814 75.6998 31.1376 68.0946 40.3387 68.0946 C 42.9383 68.0946 45.4057 68.7017 47.5976 69.7873 L 47.5342 69.8041 Z " stroke-width="1.8621960951158343"/>
    <path id="ID0.7411952735856175" fill="none" stroke="#C2B59B" d="M 37.2084 140.0052 C 34.6665 138.0964 29.9905 133.102 25.3033 120.4335 C 18.6665 102.4987 18.2009 92.9475 19.7168 79.4614 C 21.2698 65.6495 32.4765 55.197 43.4989 55.197 C 55.5007 55.197 65.227 66.5192 65.227 80.4819 C 65.227 84.1523 64.5584 87.6421 63.3461 90.7892 L 63.307 90.873 C 60.8731 97.8227 56.9495 111.5974 59.186 124.8581 C 61.0445 135.8636 69.9011 144.4223 69.9011 144.4223 " stroke-width="1.8621960951158343"/>
    <path id="ID0.6712861396372318" fill="none" stroke="#C2B59B" d="M 40.3406 68.0927 C 44.9365 68.0927 49.1003 69.9959 52.1152 73.0704 C 55.132 76.1449 56.9979 80.3925 56.9979 85.0778 C 56.9979 89.7631 55.132 94.0108 52.1152 97.0853 C 49.1003 100.1597 44.9365 102.0629 40.3406 102.0629 C 35.7447 102.0629 31.5808 100.1597 28.5659 97.0853 C 25.5491 94.0108 23.6832 89.7631 23.6832 85.0778 C 23.6832 80.3925 25.5491 76.1449 28.5659 73.0704 C 31.5808 69.9959 35.7447 68.0927 40.3406 68.0927 Z " stroke-width="1.8621960951158343"/>
    <path id="ID0.33044288074597716" fill="none" stroke="#C2B59B" d="M 109.1562 81.5452 C 110.1152 85.5303 110.6236 89.6905 110.6236 93.9773 C 110.6236 122.5862 87.9755 145.7798 60.0426 145.7798 C 32.1097 145.7798 9.8043 121.5173 9.8043 92.9084 C 9.8043 84.5788 11.2717 77.0946 14.3369 70.1207 C 17.402 63.1449 21.9048 56.6216 32.3518 43.8358 C 42.7968 31.0518 48.4095 26.9941 53.4002 17.1728 C 58.389 7.3498 58.7 1.117 60.8825 1.117 C 63.0668 1.117 63.6925 9.6905 67.9011 17.644 C 72.1115 25.5974 81.7744 34.171 92.8471 48.6719 C 103.9178 63.1691 107.8582 76.0797 109.104 81.3795 L 109.1562 81.5452 Z " stroke-width="1.8621960951158343"/>
    <path id="ID0.3837730260565877" fill="none" stroke="#C2B59B" d="M 40.9011 102.0592 C 35.348 99.3031 31.5212 93.4931 31.5212 86.7799 C 31.5212 77.6179 38.6348 70.1505 47.5361 69.8041 " stroke-width="1.8621960951158343"/>
    <path id="ID0.9077469217590988" fill="#F1F2F2" stroke="#C2B59B" d="M 13.916 152.7612 C 17.4709 152.7612 20.6944 153.4111 23.0277 154.4595 C 25.3592 155.5098 26.8043 156.9586 26.8043 158.5582 C 26.8043 160.1578 25.3592 161.6066 23.0277 162.6569 C 20.6944 163.7053 17.4709 164.3552 13.916 164.3552 C 10.3611 164.3552 7.1376 163.7053 4.8043 162.6569 C 2.4728 161.6066 1.0278 160.1578 1.0278 158.5582 C 1.0278 156.9586 2.4728 155.5098 4.8043 154.4595 C 7.1376 153.4111 10.3611 152.7612 13.916 152.7612 Z " stroke-width="1.8621960951158343"/>
    <path id="ID0.5828343462198973" fill="none" stroke="#C2B59B" d="M 1.0389 158.6159 L 1.227 161.5955 C 2.2959 164.3124 7.5715 166.3739 13.9179 166.3739 C 20.0333 166.3739 25.1525 164.4577 26.8229 161.8897 L 26.8229 158.5582 " stroke-width="1.8621960951158343"/>
    <path id="ID0.18528408976271749" fill="#F1F2F2" stroke="#C2B59B" d="M 84.8061 160.6346 C 88.361 160.6346 91.5845 161.2845 93.9178 162.3329 C 96.2493 163.3832 97.6943 164.832 97.6943 166.4316 C 97.6943 168.0312 96.2493 169.48 93.9178 170.5303 C 91.5845 171.5787 88.361 172.2286 84.8061 172.2286 C 81.2512 172.2286 78.0277 171.5787 75.6944 170.5303 C 73.3629 169.48 71.9178 168.0312 71.9178 166.4316 C 71.9178 164.832 73.3629 163.3832 75.6944 162.3329 C 78.0277 161.2845 81.2512 160.6346 84.8061 160.6346 Z " stroke-width="1.8621960951158343"/>
    <path id="ID0.07704796036705375" fill="none" stroke="#C2B59B" d="M 71.9271 166.4856 L 72.1171 169.4651 C 73.186 172.182 78.4597 174.2472 84.8061 174.2472 C 90.9234 174.2472 96.0426 172.331 97.7148 169.7593 L 97.7148 166.4316 " stroke-width="1.8621960951158343"/>
    <path id="ID0.22757864370942116" fill="#231F20" d="M 26.8024 158.5582 C 26.8024 161.7631 21.0333 164.3552 13.916 164.3552 C 7.078 164.3552 1.4859 161.9623 1.0538 158.94 L 1.065 159.0387 L 1.2251 161.5955 C 2.294 164.3124 7.5696 166.3739 13.916 166.3739 C 20.0315 166.3739 25.1506 164.4577 26.821 161.8897 L 26.821 158.5582 L 26.8024 158.5582 Z " stroke-width="1.8621960951158343"/>
    <path id="ID0.31888615107163787" fill="#231F20" d="M 71.9439 166.7407 L 72.1171 169.4651 C 73.186 172.182 78.4597 174.2472 84.8061 174.2472 C 90.9234 174.2472 96.0426 172.331 97.7148 169.7593 L 97.7148 166.4316 L 97.6962 166.4316 C 97.6962 169.6327 91.9234 172.2286 84.8061 172.2286 C 77.6869 172.2286 71.9178 169.6308 71.9178 166.4316 L 71.9439 166.7407 Z " stroke-width="1.8621960951158343"/>
    <path id="ID0.0672529530711472" fill="#3B2314" stroke="#C2B59B" d="M 14.6087 159.2044 C 12.1395 159.2044 10.0817 157.2696 9.9607 154.7705 C 9.929 154.0983 9.6981 148.0163 11.6162 142.5322 C 14.6646 133.8003 20.5007 130.264 21.1544 129.8897 C 23.3909 128.6122 26.2344 129.3906 27.5119 131.6253 C 28.7801 133.8394 28.0259 136.6551 25.8322 137.9493 C 25.5976 138.0908 22.2829 140.2398 20.4132 145.6011 C 19.0743 149.4279 19.2661 154.2752 19.2698 154.3199 C 19.3946 156.8916 17.4114 159.074 14.8434 159.2044 C 14.7633 159.2044 14.687 159.2044 14.6087 159.2044 L 14.6087 159.2044 Z " stroke-width="1.8621960951158343"/>
    <path id="ID0.3334029698744416" fill="#3B2314" stroke="#C2B59B" d="M 85.0649 168.2863 C 85.0202 168.2863 84.97 168.2863 84.9234 168.2863 C 82.3499 168.1988 80.3275 165.7649 80.4057 162.8636 C 80.4057 162.8245 80.5007 156.7053 78.0854 150.8618 C 76.0314 145.886 72.4262 143.0461 72.3871 143.0163 C 70.2549 141.3944 69.5603 138.0331 71.1264 135.7091 C 72.9383 133.0182 75.4616 132.6569 77.5919 134.2789 C 78.1767 134.7296 83.4113 138.858 86.5286 146.4093 C 89.9066 154.5936 89.7279 162.8375 89.7204 163.1802 C 89.6422 166.0387 89.2344 168.2863 85.0649 168.2863 L 85.0649 168.2863 Z " stroke-width="1.8621960951158343"/>
  </g>
</svg>